<?xml version="1.0" standalone="no"?><!DOCTYPE svg PUBLIC "-//W3C//DTD SVG 1.1//EN" "http://www.w3.org/Graphics/SVG/1.1/DTD/svg11.dtd"><svg t="1761923873561" class="icon" viewBox="0 0 1232 1024" version="1.1" xmlns="http://www.w3.org/2000/svg" p-id="1551" width="38.5" height="32" xmlns:xlink="http://www.w3.org/1999/xlink"><path d="M782.810556 403.788355h-71.497419v-87.041284h71.497419v87.041284zM94.707791 752.009755l132.280753 8.298289v-61.892314L94.707791 705.501584v46.508171z m0-178.193597l132.280753 8.29829v-61.892314L94.707791 527.306172v46.509986z m834.94727-224.703582l-132.280753-7.084038v61.892314l132.280753-8.29829v-46.509986zM94.707791 395.620747l132.280753 8.300105v-61.892314l-132.278938 7.084038v46.508171zM782.810556 138.553475h-71.497419v112.451618h71.497419V138.553475zM929.655061 170.920795l-132.278938-7.085853-0.001815 61.892313 132.280753-8.298289V170.920795zM242.766547 251.005093h79.761222V138.553475H242.766547v112.451618z m0 178.193596h79.761222v-112.449803H242.764732v112.449803zM94.707791 217.427151l132.280753 8.298289v-61.892313L94.709606 170.917165v46.509986z m454.917577 210.491946h145.828091V114.192225c0-19.616778-15.901424-35.520017-35.520017-35.520016H371.66591c-19.616778 0-35.520017 15.903239-35.520017 35.520016v700.907758c0 19.616778 15.903239 35.520017 35.520017 35.520017h177.963088v-422.700903zM242.764732 607.3941h79.763037v-112.451618H242.764732v112.451618z m0 178.193596h79.763037V673.137893H242.764732v112.451618z m484.640406-357.668599H1024v109.841613L829.360473 811.515311l-101.955335-121.013085c147.937149-17.043074 148.701274-252.039656 0-262.583129z m147.683046 422.700903H1024V642.039275l-148.911816 208.580725z m-177.373206-216.029583h-70.433815v29.817212l153.917652 186.212371H601.299097V487.484549h96.415881c104.501813 0 104.501813 147.107683 0 147.107683z" p-id="1552"></path></svg>